<svg id="svg" version="1.1" xmlns="http://www.w3.org/2000/svg" viewBox="0 0 200 200" style="display: block;"><path d="M0 0 C66 0 132 0 200 0 C200 66 200 132 200 200 C134 200 68 200 0 200 C0 134 0 68 0 0 Z " transform="translate(0,0)" style="fill: #FEFEFE;"/><path d="M0 0 C2.90093269 2.1110515 5.62285982 4.30413711 8 7 C8 7.66 8 8.32 8 9 C8.66 9 9.32 9 10 9 C10.26683594 8.40316406 10.53367188 7.80632813 10.80859375 7.19140625 C13.50155898 2.23811611 18.10137525 -0.92544801 23.3125 -2.875 C30.89209126 -5.02405219 37.75098677 -4.90895194 44.8359375 -1.31640625 C52.20658362 3.16718174 57.45734034 8.61039487 60 17 C61.80261182 29.69804434 57.41113815 42.66146228 50 53 C48.68057787 53.69379208 47.34863379 54.36485504 46 55 C45.62875 56.010625 45.2575 57.02125 44.875 58.0625 C40.70432929 68.90624384 25.79704878 76.50332176 16.25 82.0625 C15.20328125 82.67222656 14.1565625 83.28195313 13.078125 83.91015625 C9.1808873 85.29001579 7.70566355 84.69430071 4 83 C3.175 82.63003906 2.35 82.26007813 1.5 81.87890625 C-17.04599706 72.11327967 -32.9121302 57.12581784 -39.9375 37 C-40.88756912 33.68084826 -41.64878557 30.44190142 -42 27 C-42.07605469 26.26136719 -42.15210938 25.52273437 -42.23046875 24.76171875 C-42.69427019 16.70160187 -40.29612576 10.75516068 -34.98046875 4.69921875 C-24.75277327 -5.09859111 -12.45737004 -6.87646826 0 0 Z " transform="translate(93,34)" style="fill: #EF5051;"/><path d="M0 0 C0.76183594 0.05285156 1.52367187 0.10570313 2.30859375 0.16015625 C5.77482978 1.3556172 6.67130752 2.76780292 8.5625 5.9375 C9.17627457 9.79492834 9.1467073 13.61994414 9.12890625 17.51953125 C9.13820412 19.21175056 9.13820412 19.21175056 9.14768982 20.93815613 C9.15478675 23.32277566 9.15161629 25.70744475 9.13891602 28.09204102 C9.12508746 31.72701155 9.15908287 35.35938887 9.19726562 38.99414062 C9.19821722 41.31510479 9.19635583 43.63607216 9.19140625 45.95703125 C9.20466446 47.03749222 9.21792267 48.11795319 9.23158264 49.2311554 C9.13222461 57.35172831 7.09082656 61.99884839 1.72558594 67.98803711 C1.17161133 68.4753833 0.61763672 68.96272949 0.046875 69.46484375 C-0.56414062 70.03009766 -1.17515625 70.59535156 -1.8046875 71.17773438 C-3.06661235 72.31529941 -4.33761791 73.44286615 -5.6171875 74.56054688 C-9.88244267 78.54901421 -11.21345918 81.35002783 -11.45605469 87.21704102 C-11.44993164 87.78479248 -11.44380859 88.35254395 -11.4375 88.9375 C-8.7975 88.9375 -6.1575 88.9375 -3.4375 88.9375 C-3.4375 94.5475 -3.4375 100.1575 -3.4375 105.9375 C-10.39753966 105.96214201 -17.35755416 105.98033222 -24.31762695 105.99243164 C-26.68742312 105.99747341 -29.05721615 106.00430665 -31.42700195 106.01293945 C-34.82504039 106.0250119 -38.22303785 106.03072971 -41.62109375 106.03515625 C-42.68774765 106.04031754 -43.75440155 106.04547882 -44.8533783 106.05079651 C-45.83431961 106.05087204 -46.81526093 106.05094757 -47.82592773 106.05102539 C-48.69418686 106.053246 -49.56244598 106.05546661 -50.45701599 106.05775452 C-52.4375 105.9375 -52.4375 105.9375 -53.4375 104.9375 C-53.53682392 102.62675832 -53.56719618 100.31287058 -53.5625 98 C-53.56507812 96.73285156 -53.56765625 95.46570313 -53.5703125 94.16015625 C-53.4375 90.9375 -53.4375 90.9375 -52.4375 88.9375 C-50.1275 88.9375 -47.8175 88.9375 -45.4375 88.9375 C-45.45844727 88.24712646 -45.47939453 87.55675293 -45.50097656 86.84545898 C-45.58461095 83.68879007 -45.63630953 80.53235498 -45.6875 77.375 C-45.72101563 76.28896484 -45.75453125 75.20292969 -45.7890625 74.08398438 C-45.88594696 66.11523748 -45.00867925 61.77701461 -39.59521484 55.95678711 C-37.44876146 53.80406927 -35.2421794 51.74011855 -33 49.6875 C-32.24912109 48.98109375 -31.49824219 48.2746875 -30.72460938 47.546875 C-21.61371302 39.08503987 -21.61371302 39.08503987 -15.75 38.6875 C-12.4375 38.9375 -12.4375 38.9375 -10.4375 39.9375 C-10.45321045 38.96401611 -10.4689209 37.99053223 -10.48510742 36.98754883 C-10.53956239 33.36279633 -10.57390626 29.73807974 -10.60229492 26.11303711 C-10.61734622 24.54656893 -10.63779207 22.98014264 -10.66381836 21.41381836 C-10.70036433 19.15728394 -10.71726261 16.90130847 -10.73046875 14.64453125 C-10.74595261 13.94850296 -10.76143646 13.25247467 -10.77738953 12.53535461 C-10.77889615 8.14494018 -10.14585821 5.41514762 -7.4375 1.9375 C-4.23501837 -0.19748775 -3.62749306 -0.33644539 0 0 Z " transform="translate(163.4375,64.0625)" style="fill: #FCCBBC;"/><path d="M0 0 C0.77085938 0.04382813 1.54171875 0.08765625 2.3359375 0.1328125 C5.70792606 1.22611937 6.71585788 2.91782199 8.625 5.875 C9.03477812 8.57502731 9.22961388 10.88483491 9.234375 13.58203125 C9.25917938 14.67012337 9.25917938 14.67012337 9.28448486 15.78019714 C9.33282477 18.08271873 9.35430285 20.38458066 9.375 22.6875 C9.40317168 24.25459023 9.4331008 25.82164992 9.46484375 27.38867188 C9.53857891 31.21739355 9.58823821 35.04575206 9.625 38.875 C11.60864258 38.82413737 13.59228516 38.77327474 15.57592773 38.72241211 C21.17964811 39.13970333 25.08143745 44.20087315 28.76171875 48.01171875 C30.70005351 49.95005351 32.7258873 51.72308863 34.8125 53.5 C38.69979946 56.85995263 41.96939727 59.90819181 43.625 64.875 C43.70739169 66.72110532 43.73243359 68.57005164 43.72265625 70.41796875 C43.71943359 71.49111328 43.71621094 72.56425781 43.71289062 73.66992188 C43.70032227 75.34924805 43.70032227 75.34924805 43.6875 77.0625 C43.68298828 78.19365234 43.67847656 79.32480469 43.67382812 80.49023438 C43.66203498 83.28520927 43.6455765 86.0800782 43.625 88.875 C44.759375 88.854375 45.89375 88.83375 47.0625 88.8125 C50.625 88.875 50.625 88.875 51.625 89.875 C51.72475032 92.38636104 51.76382183 94.86403415 51.75 97.375 C51.75580078 98.42880859 51.75580078 98.42880859 51.76171875 99.50390625 C51.75161378 104.74838622 51.75161378 104.74838622 50.625 105.875 C49.06327255 105.96185603 47.49770656 105.98202219 45.93359375 105.97265625 C44.98935547 105.96943359 44.04511719 105.96621094 43.07226562 105.96289062 C42.07904297 105.95451172 41.08582031 105.94613281 40.0625 105.9375 C39.06541016 105.93298828 38.06832031 105.92847656 37.04101562 105.92382812 C34.56895151 105.91200007 32.09700482 105.89551849 29.625 105.875 C29.625 104.555 29.625 103.235 29.625 101.875 C35.565 101.875 41.505 101.875 47.625 101.875 C47.625 98.905 47.625 95.935 47.625 92.875 C33.765 92.875 19.905 92.875 5.625 92.875 C5.625 95.845 5.625 98.815 5.625 101.875 C11.565 101.875 17.505 101.875 23.625 101.875 C23.13 103.855 23.13 103.855 22.625 105.875 C15.695 105.875 8.765 105.875 1.625 105.875 C1.604375 103.255625 1.58375 100.63625 1.5625 97.9375 C1.553396 97.1112915 1.54429199 96.28508301 1.53491211 95.43383789 C1.52776055 93.58066241 1.5747148 91.72750692 1.625 89.875 C2.625 88.875 2.625 88.875 6.1875 88.8125 C7.321875 88.833125 8.45625 88.85375 9.625 88.875 C9.61371509 83.1084123 9.23007927 79.9334564 5.1328125 75.7421875 C3.69138233 74.39035262 2.22968924 73.05984665 0.75 71.75 C-0.71489943 70.42412442 -2.17091337 69.08835523 -3.6171875 67.7421875 C-4.58954346 66.87762939 -4.58954346 66.87762939 -5.58154297 65.99560547 C-10.94392338 59.65506146 -10.83053991 53.16327734 -10.80859375 45.2109375 C-10.8138356 44.10070221 -10.81907745 42.99046692 -10.82447815 41.84658813 C-10.83088076 39.50841099 -10.82958427 37.17020156 -10.82104492 34.83203125 C-10.81251104 31.25462787 -10.84136157 27.67880934 -10.87304688 24.1015625 C-10.87465845 21.82552131 -10.8740822 19.5494773 -10.87109375 17.2734375 C-10.88232773 16.20564056 -10.89356171 15.13784363 -10.90513611 14.03768921 C-10.8355695 6.63614612 -10.8355695 6.63614612 -8.46899414 2.72509766 C-5.44751635 0.05554435 -3.94132129 -0.30116409 0 0 Z " transform="translate(42.375,64.125)" style="fill: #F9C9BA;"/><path d="M0 0 C0.76183594 0.05285156 1.52367187 0.10570313 2.30859375 0.16015625 C5.77482978 1.3556172 6.67130752 2.76780292 8.5625 5.9375 C9.17627457 9.79492834 9.1467073 13.61994414 9.12890625 17.51953125 C9.13820412 19.21175056 9.13820412 19.21175056 9.14768982 20.93815613 C9.15478675 23.32277566 9.15161629 25.70744475 9.13891602 28.09204102 C9.12508746 31.72701155 9.15908287 35.35938887 9.19726562 38.99414062 C9.19821722 41.31510479 9.19635583 43.63607216 9.19140625 45.95703125 C9.20466446 47.03749222 9.21792267 48.11795319 9.23158264 49.2311554 C9.13222461 57.35172831 7.09082656 61.99884839 1.72558594 67.98803711 C1.17161133 68.4753833 0.61763672 68.96272949 0.046875 69.46484375 C-0.56414062 70.03009766 -1.17515625 70.59535156 -1.8046875 71.17773438 C-3.06661235 72.31529941 -4.33761791 73.44286615 -5.6171875 74.56054688 C-9.88244267 78.54901421 -11.21345918 81.35002783 -11.45605469 87.21704102 C-11.44993164 87.78479248 -11.44380859 88.35254395 -11.4375 88.9375 C-8.7975 88.9375 -6.1575 88.9375 -3.4375 88.9375 C-3.4375 94.5475 -3.4375 100.1575 -3.4375 105.9375 C-10.39753966 105.96214201 -17.35755416 105.98033222 -24.31762695 105.99243164 C-26.68742312 105.99747341 -29.05721615 106.00430665 -31.42700195 106.01293945 C-34.82504039 106.0250119 -38.22303785 106.03072971 -41.62109375 106.03515625 C-42.68774765 106.04031754 -43.75440155 106.04547882 -44.8533783 106.05079651 C-45.83431961 106.05087204 -46.81526093 106.05094757 -47.82592773 106.05102539 C-48.69418686 106.053246 -49.56244598 106.05546661 -50.45701599 106.05775452 C-52.4375 105.9375 -52.4375 105.9375 -53.4375 104.9375 C-53.53682392 102.62675832 -53.56719618 100.31287058 -53.5625 98 C-53.56507812 96.73285156 -53.56765625 95.46570313 -53.5703125 94.16015625 C-53.4375 90.9375 -53.4375 90.9375 -52.4375 88.9375 C-50.1275 88.9375 -47.8175 88.9375 -45.4375 88.9375 C-45.45844727 88.24712646 -45.47939453 87.55675293 -45.50097656 86.84545898 C-45.58461095 83.68879007 -45.63630953 80.53235498 -45.6875 77.375 C-45.72101563 76.28896484 -45.75453125 75.20292969 -45.7890625 74.08398438 C-45.88594696 66.11523748 -45.00867925 61.77701461 -39.59521484 55.95678711 C-37.44876146 53.80406927 -35.2421794 51.74011855 -33 49.6875 C-32.24912109 48.98109375 -31.49824219 48.2746875 -30.72460938 47.546875 C-21.61371302 39.08503987 -21.61371302 39.08503987 -15.75 38.6875 C-12.4375 38.9375 -12.4375 38.9375 -10.4375 39.9375 C-10.45321045 38.96401611 -10.4689209 37.99053223 -10.48510742 36.98754883 C-10.53956239 33.36279633 -10.57390626 29.73807974 -10.60229492 26.11303711 C-10.61734622 24.54656893 -10.63779207 22.98014264 -10.66381836 21.41381836 C-10.70036433 19.15728394 -10.71726261 16.90130847 -10.73046875 14.64453125 C-10.74595261 13.94850296 -10.76143646 13.25247467 -10.77738953 12.53535461 C-10.77889615 8.14494018 -10.14585821 5.41514762 -7.4375 1.9375 C-4.23501837 -0.19748775 -3.62749306 -0.33644539 0 0 Z M-5.4375 5.9375 C-5.74666323 7.92100651 -5.74666323 7.92100651 -5.70874023 10.21606445 C-5.71892685 11.10070877 -5.72911346 11.98535309 -5.73960876 12.89680481 C-5.74174881 13.85511703 -5.74388885 14.81342926 -5.74609375 15.80078125 C-5.77125852 17.82226845 -5.79665648 19.84375276 -5.82226562 21.86523438 C-5.8509955 25.05817894 -5.87500632 28.25107314 -5.89379883 31.4440918 C-5.91546633 34.52159161 -5.95491416 37.59848972 -5.99609375 40.67578125 C-5.99620956 41.62802078 -5.99632538 42.58026031 -5.9964447 43.56135559 C-6.08716062 49.64206157 -6.8157024 53.29860372 -11.234375 57.74609375 C-11.87890625 58.28363281 -12.5234375 58.82117188 -13.1875 59.375 C-13.88617188 59.9628125 -14.58484375 60.550625 -15.3046875 61.15625 C-16.00851563 61.7440625 -16.71234375 62.331875 -17.4375 62.9375 C-18.43136719 63.81921875 -18.43136719 63.81921875 -19.4453125 64.71875 C-20.06148437 65.2653125 -20.67765625 65.811875 -21.3125 66.375 C-21.86679688 66.86871094 -22.42109375 67.36242187 -22.9921875 67.87109375 C-24.4375 68.9375 -24.4375 68.9375 -26.4375 68.9375 C-25.00477377 65.65538736 -23.2398954 63.49798387 -20.6875 61 C-19.98109375 60.30261719 -19.2746875 59.60523438 -18.546875 58.88671875 C-16.74071413 57.21769231 -14.91424498 55.76681952 -12.9375 54.3125 C-10.15563986 52.13863436 -10.15563986 52.13863436 -9.875 48.8125 C-10.2734476 46.0041732 -10.2734476 46.0041732 -11.5 44 C-13.53646253 42.70324254 -13.53646253 42.70324254 -16.625 42.75 C-21.24868212 44.19016328 -23.16348696 46.24747904 -26.38671875 49.74609375 C-28.3810519 51.87718117 -30.45886567 53.7436853 -32.6875 55.625 C-36.21539833 58.66079464 -39.33294185 61.72838371 -41.4375 65.9375 C-41.52199628 67.6779417 -41.54473024 69.42159722 -41.53515625 71.1640625 C-41.53193359 72.1953125 -41.52871094 73.2265625 -41.52539062 74.2890625 C-41.51701172 75.36929688 -41.50863281 76.44953125 -41.5 77.5625 C-41.49548828 78.65046875 -41.49097656 79.7384375 -41.48632812 80.859375 C-41.4745179 83.55210662 -41.45658205 86.24481009 -41.4375 88.9375 C-38.1375 89.2675 -34.8375 89.5975 -31.4375 89.9375 C-31.1075 90.9275 -30.7775 91.9175 -30.4375 92.9375 C-36.3775 92.9375 -42.3175 92.9375 -48.4375 92.9375 C-48.4375 95.9075 -48.4375 98.8775 -48.4375 101.9375 C-34.5775 101.9375 -20.7175 101.9375 -6.4375 101.9375 C-6.4375 98.9675 -6.4375 95.9975 -6.4375 92.9375 C-12.3775 92.6075 -18.3175 92.2775 -24.4375 91.9375 C-24.4375 91.2775 -24.4375 90.6175 -24.4375 89.9375 C-19.9825 89.4425 -19.9825 89.4425 -15.4375 88.9375 C-15.46320068 88.24712646 -15.48890137 87.55675293 -15.51538086 86.84545898 C-15.41268092 81.05506747 -14.74444031 77.55661166 -10.69140625 73.28515625 C-9.15231294 71.83018077 -7.58760085 70.40188637 -6 69 C-4.43492754 67.55757812 -2.87356642 66.11111624 -1.31640625 64.66015625 C-0.6210376 64.03890869 0.07433105 63.41766113 0.79077148 62.77758789 C4.02993863 59.41344255 4.8127166 56.5580608 4.8371582 51.94116211 C4.84669022 50.95010971 4.85622223 49.95905731 4.86604309 48.93797302 C4.86513168 47.87434036 4.86422028 46.8107077 4.86328125 45.71484375 C4.86970894 44.0693026 4.86970894 44.0693026 4.87626648 42.39051819 C4.88200622 40.07309662 4.88251267 37.75565704 4.87817383 35.43823242 C4.87500886 31.88494354 4.89849566 28.33248312 4.92382812 24.77929688 C4.92610057 22.52864689 4.92680487 20.27799465 4.92578125 18.02734375 C4.934991 16.96168686 4.94420074 15.89602997 4.95368958 14.79808044 C4.94746078 13.81018021 4.94123199 12.82227997 4.93481445 11.80444336 C4.93544388 10.93492538 4.9360733 10.06540741 4.9367218 9.16954041 C4.48131605 6.4532795 3.75285298 5.56378221 1.5625 3.9375 C-1.91971301 3.51283988 -2.9025931 3.4025931 -5.4375 5.9375 Z " transform="translate(163.4375,64.0625)" style="fill: #0E0C0C;"/><path d="M0 0 C0.77085938 0.04382813 1.54171875 0.08765625 2.3359375 0.1328125 C5.70792606 1.22611937 6.71585788 2.91782199 8.625 5.875 C9.03477812 8.57502731 9.22961388 10.88483491 9.234375 13.58203125 C9.25917938 14.67012337 9.25917938 14.67012337 9.28448486 15.78019714 C9.33282477 18.08271873 9.35430285 20.38458066 9.375 22.6875 C9.40317168 24.25459023 9.4331008 25.82164992 9.46484375 27.38867188 C9.53857891 31.21739355 9.58823821 35.04575206 9.625 38.875 C11.60864258 38.82413737 13.59228516 38.77327474 15.57592773 38.72241211 C21.17964811 39.13970333 25.08143745 44.20087315 28.76171875 48.01171875 C30.70005351 49.95005351 32.7258873 51.72308863 34.8125 53.5 C38.69979946 56.85995263 41.96939727 59.90819181 43.625 64.875 C43.70739169 66.72110532 43.73243359 68.57005164 43.72265625 70.41796875 C43.71943359 71.49111328 43.71621094 72.56425781 43.71289062 73.66992188 C43.70032227 75.34924805 43.70032227 75.34924805 43.6875 77.0625 C43.68298828 78.19365234 43.67847656 79.32480469 43.67382812 80.49023438 C43.66203498 83.28520927 43.6455765 86.0800782 43.625 88.875 C44.759375 88.854375 45.89375 88.83375 47.0625 88.8125 C50.625 88.875 50.625 88.875 51.625 89.875 C51.72475032 92.38636104 51.76382183 94.86403415 51.75 97.375 C51.75580078 98.42880859 51.75580078 98.42880859 51.76171875 99.50390625 C51.75161378 104.74838622 51.75161378 104.74838622 50.625 105.875 C49.06327255 105.96185603 47.49770656 105.98202219 45.93359375 105.97265625 C44.98935547 105.96943359 44.04511719 105.96621094 43.07226562 105.96289062 C42.07904297 105.95451172 41.08582031 105.94613281 40.0625 105.9375 C39.06541016 105.93298828 38.06832031 105.92847656 37.04101562 105.92382812 C34.56895151 105.91200007 32.09700482 105.89551849 29.625 105.875 C29.625 104.555 29.625 103.235 29.625 101.875 C35.565 101.875 41.505 101.875 47.625 101.875 C47.625 98.905 47.625 95.935 47.625 92.875 C33.765 92.875 19.905 92.875 5.625 92.875 C5.625 95.845 5.625 98.815 5.625 101.875 C11.565 101.875 17.505 101.875 23.625 101.875 C23.13 103.855 23.13 103.855 22.625 105.875 C15.695 105.875 8.765 105.875 1.625 105.875 C1.604375 103.255625 1.58375 100.63625 1.5625 97.9375 C1.553396 97.1112915 1.54429199 96.28508301 1.53491211 95.43383789 C1.52776055 93.58066241 1.5747148 91.72750692 1.625 89.875 C2.625 88.875 2.625 88.875 6.1875 88.8125 C7.321875 88.833125 8.45625 88.85375 9.625 88.875 C9.61371509 83.1084123 9.23007927 79.9334564 5.1328125 75.7421875 C3.69138233 74.39035262 2.22968924 73.05984665 0.75 71.75 C-0.71489943 70.42412442 -2.17091337 69.08835523 -3.6171875 67.7421875 C-4.58954346 66.87762939 -4.58954346 66.87762939 -5.58154297 65.99560547 C-10.94392338 59.65506146 -10.83053991 53.16327734 -10.80859375 45.2109375 C-10.8138356 44.10070221 -10.81907745 42.99046692 -10.82447815 41.84658813 C-10.83088076 39.50841099 -10.82958427 37.17020156 -10.82104492 34.83203125 C-10.81251104 31.25462787 -10.84136157 27.67880934 -10.87304688 24.1015625 C-10.87465845 21.82552131 -10.8740822 19.5494773 -10.87109375 17.2734375 C-10.88232773 16.20564056 -10.89356171 15.13784363 -10.90513611 14.03768921 C-10.8355695 6.63614612 -10.8355695 6.63614612 -8.46899414 2.72509766 C-5.44751635 0.05554435 -3.94132129 -0.30116409 0 0 Z M-6.375 6.875 C-6.83540112 9.14782567 -6.83540112 9.14782567 -6.77905273 11.71020508 C-6.79173691 12.69164993 -6.80442108 13.67309479 -6.81748962 14.6842804 C-6.81455399 15.74366318 -6.81161835 16.80304596 -6.80859375 17.89453125 C-6.8138356 18.98585861 -6.81907745 20.07718597 -6.82447815 21.20158386 C-6.83090586 23.51239165 -6.82955173 25.82323213 -6.82104492 28.1340332 C-6.81255766 31.66352019 -6.84125114 35.19137705 -6.87304688 38.72070312 C-6.87465956 40.96614535 -6.87408008 43.21159043 -6.87109375 45.45703125 C-6.88232773 46.51034134 -6.89356171 47.56365143 -6.90513611 48.64888 C-6.83781985 55.75943518 -5.59636556 59.53231872 -0.55981445 64.75854492 C0.0412915 65.28552979 0.64239746 65.81251465 1.26171875 66.35546875 C1.92107422 66.96326172 2.58042969 67.57105469 3.25976562 68.19726562 C4.6250532 69.43784568 6.00539733 70.66206037 7.40039062 71.86914062 C13.66070012 77.73548768 12.74024153 79.14265682 13.625 88.875 C22.205 88.875 30.785 88.875 39.625 88.875 C40.9446263 74.95231613 40.9446263 74.95231613 38.078125 61.4765625 C35.76747103 58.93821635 33.34901098 56.96290952 30.625 54.875 C29.51738633 53.80848392 28.42437674 52.7266637 27.34375 51.6328125 C26.20956141 50.50397309 25.07415348 49.37635741 23.9375 48.25 C23.13662964 47.44804199 23.13662964 47.44804199 22.31958008 46.62988281 C19.6416513 44.12105591 18.03837791 42.92580898 14.3515625 42.47265625 C11.66342274 42.70789401 11.66342274 42.70789401 9.6875 43.9375 C7.931029 47.14047653 8.76049706 49.40975392 9.625 52.875 C11.56244735 55.11029373 13.26184548 56.82936001 15.5 58.6875 C16.04269531 59.16380859 16.58539063 59.64011719 17.14453125 60.13085938 C19.55170028 62.22315422 21.96914351 64.10442901 24.625 65.875 C24.625 66.865 24.625 67.855 24.625 68.875 C21.08001874 67.33583954 18.54241198 65.21157665 15.6875 62.625 C14.85347656 61.87734375 14.01945312 61.1296875 13.16015625 60.359375 C12.32355469 59.53953125 11.48695312 58.7196875 10.625 57.875 C9.76011963 57.04669678 8.89523926 56.21839355 8.00415039 55.36499023 C4.56365676 51.16856919 4.94971717 46.76575761 5.0234375 41.55078125 C5.01543121 40.56756393 5.00742493 39.58434662 4.99917603 38.57133484 C4.97615721 35.44296639 4.98556011 32.31590291 5 29.1875 C5.003844 26.04863146 5.00045984 22.91033392 4.97940063 19.77153015 C4.96728252 17.82170551 4.97002784 15.87172027 4.98910522 13.92195129 C4.98544952 13.0406102 4.98179382 12.1592691 4.97802734 11.2512207 C4.98200531 10.4765596 4.98598328 9.7018985 4.99008179 8.90376282 C4.52666242 6.32853717 3.68159568 5.44800823 1.625 3.875 C-2.28376965 3.28868455 -3.97132878 3.75188043 -6.375 6.875 Z " transform="translate(42.375,64.125)" style="fill: #0C0C0B;"/><path d="M0 0 C2.90093269 2.1110515 5.62285982 4.30413711 8 7 C8 7.66 8 8.32 8 9 C8.66 9 9.32 9 10 9 C10.26683594 8.40316406 10.53367188 7.80632813 10.80859375 7.19140625 C13.50155898 2.23811611 18.10137525 -0.92544801 23.3125 -2.875 C30.89209126 -5.02405219 37.75098677 -4.90895194 44.8359375 -1.31640625 C52.20658362 3.16718174 57.45734034 8.61039487 60 17 C61.83096916 29.89780044 57.00672782 40.87278288 51 52 C49.68 52 48.36 52 47 52 C47.40707718 48.74338256 48.32018916 46.28007402 49.875 43.4375 C53.71710372 36.00569354 56.54590304 26.39204506 55 18 C52.67993157 11.13259744 49.50418414 6.33212118 43 3 C37.37341087 0.43133975 31.59012496 0.01064213 25.6328125 1.65234375 C19.9059849 3.89872562 16.56781363 7.07138566 13 12 C12.38125 12.804375 11.7625 13.60875 11.125 14.4375 C10.75375 14.953125 10.3825 15.46875 10 16 C6.5041314 14.83471047 6.11320357 13.66942985 4.21875 10.69140625 C0.68857913 5.7921627 -3.77828583 2.29231208 -9.76953125 1.19140625 C-17.62393761 0.51738539 -23.75754875 1.42636347 -30.1171875 6.29296875 C-34.43244026 10.20534522 -35.81012133 12.79050276 -36.30078125 18.5 C-36.62323479 35.60700867 -30.88845286 48.52933223 -19 61 C-11.65277155 67.88872561 0.40108829 78.83735685 11 79 C13.6055382 77.86585966 15.70283853 76.76674828 18.0625 75.25 C19.03171387 74.64841064 19.03171387 74.64841064 20.02050781 74.03466797 C27.43035293 69.30170632 34.71106712 63.66972599 40.671875 57.1796875 C42 56 42 56 45 56 C44.34914597 61.6407349 39.67478226 65.59598069 35.46875 68.96484375 C34.15384913 69.96634169 32.83057617 70.95692391 31.5 71.9375 C30.8002002 72.4545752 30.10040039 72.97165039 29.37939453 73.50439453 C16.3067474 82.98940205 16.3067474 82.98940205 10 85 C-5.49494508 81.53246114 -22.44823347 67.34103946 -31.1015625 54.34570312 C-36.45607221 45.87397011 -40.96919386 37.10190021 -42 27 C-42.07605469 26.26136719 -42.15210938 25.52273437 -42.23046875 24.76171875 C-42.69427019 16.70160187 -40.29612576 10.75516068 -34.98046875 4.69921875 C-24.75277327 -5.09859111 -12.45737004 -6.87646826 0 0 Z " transform="translate(93,34)" style="fill: #100B0B;"/><path d="M0 0 C5.03726198 2.7655556 8.77388836 5.41464794 11.1875 10.75 C11.56652038 13.90850315 11.70563279 15.83564801 10.125 18.625 C7.07155803 20.39796631 4.64012038 20.11343372 1.1875 19.75 C0.55585937 19.255 -0.07578125 18.76 -0.7265625 18.25 C-4.36916049 15.6306037 -8.50208922 16.20153011 -12.8125 16.75 C-15.52376384 18.17621684 -15.52376384 18.17621684 -17.8125 19.75 C-21.00264822 20.13281779 -22.9071655 20.2932007 -25.6875 18.625 C-27.44780047 15.69116588 -27.38829188 14.14077439 -26.8125 10.75 C-21.1402594 0.31066357 -11.52359943 -4.54416448 0 0 Z " transform="translate(109.8125,74.25)" style="fill: #FBF3E6;"/><path d="M0 0 C5.46841799 3.01021748 10.00032099 7.37564198 12.8125 13 C13.1631291 18.34709374 13.25653637 21.62872307 9.8125 26 C6.13762369 27.83743815 1.83300918 27.38229881 -2.1875 27 C-4.9375 25.5 -4.9375 25.5 -7.1875 24 C-10.87684671 23.52901957 -12.70078339 23.74041781 -16 25.5 C-20.13860569 27.44757915 -23.6812043 27.79674049 -28.1875 27 C-30.68910818 25.12379387 -31.80695652 23.76108697 -33.1875 21 C-33.56692283 16.44692607 -33.67853644 13.98207287 -31.625 9.875 C-23.23416146 -0.02188648 -12.69236284 -5.70963435 0 0 Z M-27.1875 10.4375 C-29.2841586 13.68873749 -29.89590802 16.10375587 -29.1875 20 C-28.1875 22 -28.1875 22 -26.1875 23 C-22.71529807 23.4528959 -20.88305786 23.46370524 -17.9375 21.5 C-13.88391367 19.28895291 -9.71572844 19.24897675 -5.1875 20 C-3.83436625 20.97304 -2.49933012 21.97195354 -1.1875 23 C3.4808392 23.50570002 3.4808392 23.50570002 7.75 21.875 C9.42108305 18.92602991 9.38393254 17.36510272 8.8125 14 C5.75063104 8.61111063 2.07516057 4.25002072 -4.0390625 2.45703125 C-13.75848205 0.38944564 -20.97385906 2.60517948 -27.1875 10.4375 Z " transform="translate(112.1875,71)" style="fill: #0F0A09;"/><path d="M0 0 C-0.54269531 0.43570313 -1.08539063 0.87140625 -1.64453125 1.3203125 C-2.71767578 2.21363281 -2.71767578 2.21363281 -3.8125 3.125 C-4.87404297 3.99511719 -4.87404297 3.99511719 -5.95703125 4.8828125 C-10.58502883 9.67894001 -11.55814918 14.5777621 -11.5 21.0625 C-11.49427979 21.80838379 -11.48855957 22.55426758 -11.48266602 23.32275391 C-11.07655766 36.10764644 -4.61340733 48.45716343 4.25 57.5625 C6.94010217 60.05886596 6.94010217 60.05886596 10 62 C10.721875 62.7425 11.44375 63.485 12.1875 64.25 C17.52787116 69.47169625 23.45076149 73.45249581 30 77 C28.33984375 77.67578125 28.33984375 77.67578125 26 78 C7.63657788 70.23409477 -7.97450549 54.43664018 -16.12890625 36.51953125 C-18.84845387 28.65357513 -19.90935588 18.05169064 -16.94140625 10.19921875 C-13.3901929 4.47300753 -7.24582207 -2.54408864 0 0 Z " transform="translate(74,36)" style="fill: #CE423F;"/><path d="M0 0 C-0.66 0.66 -1.32 1.32 -2 2 C-2.31990468 4.26094329 -2.31990468 4.26094329 -2.29052734 6.90527344 C-2.30328705 7.92683533 -2.31604675 8.94839722 -2.32919312 10.00091553 C-2.33141876 11.10920715 -2.33364441 12.21749878 -2.3359375 13.359375 C-2.3425943 14.4965094 -2.3492511 15.6336438 -2.35610962 16.80523682 C-2.36625174 19.21617003 -2.37092616 21.62713141 -2.37060547 24.03808594 C-2.37496588 27.72117758 -2.41123567 31.40305907 -2.44921875 35.0859375 C-2.45508914 37.42707923 -2.45905704 39.76822666 -2.4609375 42.109375 C-2.48249405 43.75966705 -2.48249405 43.75966705 -2.50448608 45.44329834 C-2.46116448 52.72430629 -1.32825938 56.54748561 3.83105469 61.89941406 C4.43852539 62.43276367 5.04599609 62.96611328 5.671875 63.515625 C6.33574219 64.12792969 6.99960937 64.74023438 7.68359375 65.37109375 C9.06207077 66.62449157 10.4555158 67.86162091 11.86328125 69.08203125 C16.78270132 73.69338588 16.78270132 73.69338588 17.45117188 77.71289062 C17.45291478 80.18606605 17.32608136 82.55001705 17 85 C15.35 85 13.7 85 12 85 C12.02570068 84.30962646 12.05140137 83.61925293 12.07788086 82.90795898 C11.97518092 77.11756747 11.30694031 73.61911166 7.25390625 69.34765625 C5.71481294 67.89268077 4.15010085 66.46438637 2.5625 65.0625 C0.99742754 63.62007812 -0.56393358 62.17361624 -2.12109375 60.72265625 C-3.16414673 59.79078491 -3.16414673 59.79078491 -4.22827148 58.84008789 C-7.46743863 55.47594255 -8.2502166 52.6205608 -8.2746582 48.00366211 C-8.28419022 47.01260971 -8.29372223 46.02155731 -8.30354309 45.00047302 C-8.30263168 43.93684036 -8.30172028 42.8732077 -8.30078125 41.77734375 C-8.30506638 40.68031631 -8.3093515 39.58328888 -8.31376648 38.45301819 C-8.31950622 36.13559662 -8.32001267 33.81815704 -8.31567383 31.50073242 C-8.31250886 27.94744354 -8.33599566 24.39498312 -8.36132812 20.84179688 C-8.36360057 18.59114689 -8.36430487 16.34049465 -8.36328125 14.08984375 C-8.372491 13.02418686 -8.38170074 11.95852997 -8.39118958 10.86058044 C-8.38496078 9.87268021 -8.37873199 8.88477997 -8.37231445 7.86694336 C-8.37294388 6.99742538 -8.3735733 6.12790741 -8.3742218 5.23204041 C-7.53815276 0.24531894 -4.58914438 -0.37209279 0 0 Z " transform="translate(44,68)" style="fill: #F3A897;"/><path d="M0 0 C13.86 0 27.72 0 42 0 C42 2.97 42 5.94 42 9 C40.15535156 9.07347656 40.15535156 9.07347656 38.2734375 9.1484375 C36.64060434 9.22351029 35.00779288 9.29905615 33.375 9.375 C32.56675781 9.4059375 31.75851563 9.436875 30.92578125 9.46875 C26.28161686 9.6952946 22.37306144 10.2592668 18 12 C18 11.01 18 10.02 18 9 C12.06 9 6.12 9 0 9 C0 6.03 0 3.06 0 0 Z " transform="translate(48,157)" style="fill: #83C0D7;"/><path d="M0 0 C1.66611905 -0.042721 3.33382885 -0.04063832 5 0 C5.33 0.33 5.66 0.66 6 1 C7.34015221 1.15582303 8.68758903 1.25044142 10.03515625 1.31640625 C11.24848633 1.37924805 11.24848633 1.37924805 12.48632812 1.44335938 C13.33646484 1.48267578 14.18660156 1.52199219 15.0625 1.5625 C15.91650391 1.60568359 16.77050781 1.64886719 17.65039062 1.69335938 C19.76672037 1.79976702 21.88333813 1.90041731 24 2 C24 4.97 24 7.94 24 11 C10.14 11 -3.72 11 -18 11 C-18 8.03 -18 5.06 -18 2 C-12.06 2 -6.12 2 0 2 C0 1.34 0 0.68 0 0 Z " transform="translate(133,155)" style="fill: #83C0D7;"/><path d="M0 0 C3.625 0.25 3.625 0.25 5.5 1.625 C7.99353392 5.22677122 7.98869283 7.88568602 7.625 12.25 C5.87005919 15.35039543 4.13674333 17.73825667 1.625 20.25 C-3.63708651 20.80979644 -3.63708651 20.80979644 -6.1875 18.875 C-8.84272944 15.24152814 -8.99063845 11.61617267 -8.375 7.25 C-4.47549192 0.33151792 -4.47549192 0.33151792 0 0 Z " transform="translate(112.375,46.75)" style="fill: #0E0706;"/><path d="M0 0 C3.5 0.625 3.5 0.625 5.875 3 C8.53959392 7.30434403 8.90783204 10.60170291 8.5 15.625 C7.49124788 18.43509519 7.16604583 19.29197708 4.5 20.625 C1.6875 21.0625 1.6875 21.0625 -1.5 20.625 C-5.12543809 17.49131017 -7.36281246 14.07918797 -7.8125 9.3125 C-7.33138739 3.63537116 -5.73275125 1.02370558 0 0 Z " transform="translate(91.5,46.375)" style="fill: #0D0706;"/><path d="M0 0 C0.99 0.33 1.98 0.66 3 1 C-0.60251186 4.70383251 -4.25621517 8.26902515 -8.1875 11.625 C-14.48670155 16.97040449 -14.48670155 16.97040449 -17.20532227 24.43017578 C-17.24197998 25.4251709 -17.2786377 26.42016602 -17.31640625 27.4453125 C-17.35830078 28.52167969 -17.40019531 29.59804687 -17.44335938 30.70703125 C-17.50233398 32.39892578 -17.50233398 32.39892578 -17.5625 34.125 C-17.60568359 35.26066406 -17.64886719 36.39632812 -17.69335938 37.56640625 C-17.7996604 40.37747768 -17.90169405 43.18863945 -18 46 C-19.65 46 -21.3 46 -23 46 C-23.11674705 42.29193404 -23.18743274 38.5843446 -23.25 34.875 C-23.28351563 33.82828125 -23.31703125 32.7815625 -23.3515625 31.703125 C-23.42906165 25.58069248 -23.23504975 21.78711873 -19 17 C-18.45859375 16.38253906 -17.9171875 15.76507813 -17.359375 15.12890625 C-13.04332541 10.928091 -8.62899015 6.85590108 -4 3 C-3.32324219 2.41734375 -2.64648438 1.8346875 -1.94921875 1.234375 C-0.98435547 0.62335938 -0.98435547 0.62335938 0 0 Z " transform="translate(145,107)" style="fill: #F3A897;"/><path d="M0 0 C0.78375 0.04125 1.5675 0.0825 2.375 0.125 C1.385 0.62 1.385 0.62 0.375 1.125 C0.36041748 2.40665039 0.34583496 3.68830078 0.33081055 5.00878906 C0.2728268 9.76509465 0.19559367 14.52092685 0.11254883 19.27685547 C0.07929989 21.33504553 0.05126786 23.39332676 0.02856445 25.45166016 C-0.0049819 28.41087691 -0.05729802 31.36925817 -0.11328125 34.328125 C-0.11967117 35.24805237 -0.1260611 36.16797974 -0.13264465 37.11578369 C-0.28034388 43.53729952 -0.28034388 43.53729952 -2.15698242 46.73730469 C-2.64142822 47.19524414 -3.12587402 47.65318359 -3.625 48.125 C-4.285 47.795 -4.945 47.465 -5.625 47.125 C-5.53286673 40.75265898 -5.4255798 34.38070398 -5.30761719 28.00878906 C-5.26927009 25.83990307 -5.23442745 23.67095223 -5.203125 21.50195312 C-5.15759862 18.38908668 -5.09958427 15.27666894 -5.0390625 12.1640625 C-5.02751129 11.190065 -5.01596008 10.2160675 -5.00405884 9.21255493 C-4.98418915 8.31177216 -4.96431946 7.41098938 -4.94384766 6.48291016 C-4.93052399 5.68793121 -4.91720032 4.89295227 -4.9034729 4.07388306 C-4.43435948 0.79080888 -3.19497497 0.15214167 0 0 Z " transform="translate(162.625,67.875)" style="fill: #FDAE9D;"/><path d="M0 0 C2.375 0.5 2.375 0.5 4.1875 1.625 C5.94235742 4.3958275 5.76174913 6.2770906 5.375 9.5 C3.70737678 12.99406769 2.63493978 14.32670681 -0.625 16.5 C-3.6875 16.3125 -3.6875 16.3125 -6.625 15.5 C-8.625 12.5 -8.625 12.5 -8.5625 9.125 C-7.29111086 4.20896199 -5.19930455 0.99034372 0 0 Z " transform="translate(126.625,59.5)" style="fill: #100807;"/><path d="M0 0 C2.9375 2.625 2.9375 2.625 5 6 C4.93253626 10.04782457 4.89653503 12.10346497 2 15 C-0.3125 15.4375 -0.3125 15.4375 -3 15 C-6.58860621 12.39010457 -8.26617021 10.19821464 -9 5.875 C-9 2 -9 2 -7.9375 -0.0625 C-4.86195153 -1.55066861 -3.20453717 -1.08954264 0 0 Z " transform="translate(81,61)" style="fill: #0E0505;"/><path d="M0 0 C5.61 0 11.22 0 17 0 C17 0.33 17 0.66 17 1 C13.37 1 9.74 1 6 1 C6 3.31 6 5.62 6 8 C17.55 8 29.1 8 41 8 C41 5.69 41 3.38 41 1 C35.72 1 30.44 1 25 1 C25 0.67 25 0.34 25 0 C30.61 0 36.22 0 42 0 C42 2.97 42 5.94 42 9 C28.14 9 14.28 9 0 9 C0 6.03 0 3.06 0 0 Z " transform="translate(115,157)" style="fill: #598798;"/><path d="M0 0 C13.86 0 27.72 0 42 0 C42 2.97 42 5.94 42 9 C36.39 9 30.78 9 25 9 C25 8.67 25 8.34 25 8 C30.28 8 35.56 8 41 8 C41 5.69 41 3.38 41 1 C29.45 1 17.9 1 6 1 C6 3.31 6 5.62 6 8 C9.63 8 13.26 8 17 8 C17 8.33 17 8.66 17 9 C11.39 9 5.78 9 0 9 C0 6.03 0 3.06 0 0 Z " transform="translate(48,157)" style="fill: #598698;"/><path d="M0 0 C1.65 0.33 3.3 0.66 5 1 C5.32019737 5.5894956 4.97413931 8.38854512 2 12 C0.68 12 -0.64 12 -2 12 C-3.40457737 9.19084526 -3.24895157 7.11189466 -3 4 C-1.5 1.625 -1.5 1.625 0 0 Z " transform="translate(111,51)" style="fill: #EBE4D5;"/><path d="M0 0 C2.375 0.3125 2.375 0.3125 5 1 C7.30441554 4.45662331 7.25860135 5.94857881 7 10 C6.67 10.66 6.34 11.32 6 12 C3.40939422 11.64267506 2.15432506 11.1383604 0.1875 9.375 C-1.49565719 6.00868562 -0.76115885 3.5982055 0 0 Z " transform="translate(89,51)" style="fill: #EADEBC;"/><path d="M0 0 C5.61 0 11.22 0 17 0 C17 0.33 17 0.66 17 1 C13.37 1 9.74 1 6 1 C6 3.31 6 5.62 6 8 C4.02 8 2.04 8 0 8 C0 5.36 0 2.72 0 0 Z " transform="translate(115,157)" style="fill: #499BBC;"/><path d="M0 0 C1.98 0 3.96 0 6 0 C6 2.31 6 4.62 6 7 C9.63 7 13.26 7 17 7 C17 7.33 17 7.66 17 8 C11.39 8 5.78 8 0 8 C0 5.36 0 2.72 0 0 Z " transform="translate(48,158)" style="fill: #499BBC;"/><path d="M0 0 C0.66 0.33 1.32 0.66 2 1 C1.2884375 1.61875 1.2884375 1.61875 0.5625 2.25 C-2.32222793 5.48089528 -2.11747983 9.07153279 -2.0625 13.25 C-2.04896484 14.58804688 -2.04896484 14.58804688 -2.03515625 15.953125 C-2.02355469 16.62859375 -2.01195313 17.3040625 -2 18 C-5.875 16.125 -5.875 16.125 -7 15 C-7.55461992 11.75151187 -7.42503227 9.69735833 -5.6953125 6.859375 C-3.90373798 4.47632373 -2.11126133 2.11126133 0 0 Z " transform="translate(90,76)" style="fill: #ECE0BE;"/><path d="M0 0 C1.32 0.33 2.64 0.66 4 1 C3.01 1 2.02 1 1 1 C0.9729957 2.45823212 0.95360213 3.91660675 0.9375 5.375 C0.92589844 6.18710937 0.91429688 6.99921875 0.90234375 7.8359375 C0.85533666 10.04937142 0.85533666 10.04937142 2 12 C0.68 12 -0.64 12 -2 12 C-3.40457737 9.19084526 -3.24895157 7.11189466 -3 4 C-1.5 1.625 -1.5 1.625 0 0 Z " transform="translate(111,51)" style="fill: #EFE2C0;"/><path d="M0 0 C1.875 0.3125 1.875 0.3125 4 1 C6 4 6 4 5.625 6.1875 C5.41875 6.785625 5.2125 7.38375 5 8 C3.0625 7.375 3.0625 7.375 1 6 C0.25 2.875 0.25 2.875 0 0 Z " transform="translate(76,64)" style="fill: #DAD0B4;"/><path d="M0 0 C3 1 3 1 4 3 C4.039992 4.99960012 4.04346799 7.00047242 4 9 C3.01 9.33 2.02 9.66 1 10 C-0.60725635 6.78548731 -0.05748185 3.56387464 0 0 Z " transform="translate(92,52)" style="fill: #F5EEE0;"/><path d="M0 0 C-0.25 2.875 -0.25 2.875 -1 6 C-3.0625 7.375 -3.0625 7.375 -5 8 C-5.125 5.125 -5.125 5.125 -5 2 C-3 0 -3 0 0 0 Z " transform="translate(128,64)" style="fill: #E4D9BC;"/><path d="M0 0 C2.64 1.32 5.28 2.64 8 4 C3.23374833 5.19156292 2.12120649 4.3415946 -2 2 C-1.34 1.34 -0.68 0.68 0 0 Z " transform="translate(96,109)" style="fill: #BE3D3A;"/></svg>